<svg xmlns="http://www.w3.org/2000/svg" xmlns:xlink="http://www.w3.org/1999/xlink" viewBox="0,0,256,256" width="48px" height="48px" fill-rule="nonzero"><g fill="none" fill-rule="nonzero" stroke="none" stroke-width="1" stroke-linecap="butt" stroke-linejoin="miter" stroke-miterlimit="10" stroke-dasharray="" stroke-dashoffset="0" font-family="none" font-weight="none" font-size="none" text-anchor="none" style="mix-blend-mode: normal"><g transform="scale(5.33333,5.33333)"><path d="M43.2,33.9c-0.4,2.1 -2.1,3.7 -4.2,4c-3.3,0.5 -8.8,1.1 -15,1.1c-6.1,0 -11.6,-0.6 -15,-1.1c-2.1,-0.3 -3.8,-1.9 -4.2,-4c-0.4,-2.3 -0.8,-5.7 -0.8,-9.9c0,-4.2 0.4,-7.6 0.8,-9.9c0.4,-2.1 2.1,-3.7 4.2,-4c3.3,-0.5 8.8,-1.1 15,-1.1c6.2,0 11.6,0.6 15,1.1c2.1,0.3 3.8,1.9 4.2,4c0.4,2.3 0.9,5.7 0.9,9.9c-0.1,4.2 -0.5,7.6 -0.9,9.9z" fill="#ff0000"></path><path d="M20,31v-14l12,7z" fill="#ffffff"></path></g></g><g fill="#000000" fill-rule="nonzero" stroke="none" stroke-width="1" stroke-linecap="butt" stroke-linejoin="miter" stroke-miterlimit="10" stroke-dasharray="" stroke-dashoffset="0" font-family="none" font-weight="none" font-size="none" text-anchor="none" style="mix-blend-mode: normal"><g><path d="M270.365,119.88833l24.61,47.59l24.74,-47.59h14.19l-32.68,59.44v35.35h-12.5v-35.35l-32.68,-59.44zM336.835,179.65833v-0.85c0,-6.9 1.35667,-13.10667 4.07,-18.62c2.71333,-5.51333 6.49,-9.76667 11.33,-12.76c4.84,-2.99333 10.36333,-4.49 16.57,-4.49v0c9.59333,0 17.35,3.32 23.27,9.96c5.92667,6.64 8.89,15.47333 8.89,26.5v0v0.84c0,6.86 -1.31333,13.01333 -3.94,18.46c-2.62667,5.44667 -6.38,9.69 -11.26,12.73c-4.88667,3.04 -10.49667,4.56 -16.83,4.56v0c-9.55333,0 -17.29,-3.32333 -23.21,-9.97c-5.92667,-6.64 -8.89,-15.42667 -8.89,-26.36zM348.945,180.23833v0c0,7.81333 1.81333,14.08667 5.44,18.82c3.62,4.72667 8.47,7.09 14.55,7.09v0c6.12,0 10.98,-2.39667 14.58,-7.19c3.6,-4.79333 5.4,-11.51 5.4,-20.15v0c0,-7.72667 -1.83333,-13.98667 -5.5,-18.78c-3.66667,-4.8 -8.53667,-7.2 -14.61,-7.2v0c-5.94667,0 -10.74333,2.36667 -14.39,7.1c-3.64667,4.73333 -5.47,11.50333 -5.47,20.31zM459.815,214.67833l-0.26,-6.96c-4.68667,5.51333 -11.56667,8.27 -20.64,8.27v0c-7.50667,0 -13.22333,-2.18333 -17.15,-6.55c-3.92667,-4.36 -5.91333,-10.81667 -5.96,-19.37v0v-45.83h12.05v45.51c0,10.67333 4.34,16.01 13.02,16.01v0c9.2,0 15.32,-3.42667 18.36,-10.28v0v-51.24h12.04v70.44zM556.955,119.88833v10.29h-30.47v84.5h-12.44v-84.5h-30.4v-10.29zM606.695,214.67833l-0.26,-6.96c-4.68667,5.51333 -11.56667,8.27 -20.64,8.27v0c-7.50667,0 -13.22667,-2.18333 -17.16,-6.55c-3.92667,-4.36 -5.91,-10.81667 -5.95,-19.37v0v-45.83h12.04v45.51c0,10.67333 4.34,16.01 13.02,16.01v0c9.2,0 15.32,-3.42667 18.36,-10.28v0v-51.24h12.05v70.44zM696.085,179.19833v1.04c0,10.76667 -2.47667,19.41667 -7.43,25.95c-4.94667,6.53333 -11.58667,9.8 -19.92,9.8v0c-8.89333,0 -15.77333,-3.14667 -20.64,-9.44v0l-0.58,8.13h-11.07v-100h12.04v37.31c4.86667,-6.03333 11.57333,-9.05 20.12,-9.05c8.55333,0 15.27,3.23333 20.15,9.7c4.88667,6.46667 7.33,15.32 7.33,26.56zM684.035,178.87833v0c0,-8.20667 -1.58333,-14.54333 -4.75,-19.01c-3.16667,-4.47333 -7.72333,-6.71 -13.67,-6.71v0c-7.94667,0 -13.65667,3.69 -17.13,11.07v0v30.47c3.69333,7.37333 9.44667,11.06 17.26,11.06v0c5.77333,0 10.26333,-2.23333 13.47,-6.7c3.21333,-4.47333 4.82,-11.2 4.82,-20.18zM740.485,215.98833v0c-9.55333,0 -17.32333,-3.13667 -23.31,-9.41c-5.98667,-6.27333 -8.98,-14.66 -8.98,-25.16v0v-2.22c0,-6.98667 1.33333,-13.22667 4,-18.72c2.66667,-5.48667 6.4,-9.78333 11.2,-12.89c4.79333,-3.1 9.99,-4.65 15.59,-4.65v0c9.16,0 16.27667,3.01667 21.35,9.05c5.08,6.03333 7.62,14.67 7.62,25.91v0v5.01h-47.72c0.17333,6.94667 2.20333,12.55667 6.09,16.83c3.88,4.27333 8.81667,6.41 14.81,6.41v0c4.25333,0 7.85667,-0.86667 10.81,-2.6c2.94667,-1.73333 5.52667,-4.03333 7.74,-6.9v0l7.36,5.73c-5.9,9.07333 -14.75333,13.61 -26.56,13.61zM738.985,152.82833v0c-4.86,0 -8.94,1.77 -12.24,5.31c-3.3,3.54 -5.34,8.5 -6.12,14.88v0h35.29v-0.91c-0.34667,-6.12 -1.99667,-10.86333 -4.95,-14.23c-2.95333,-3.36667 -6.94667,-5.05 -11.98,-5.05z"></path></g></g></svg>